<?xml version="1.0" encoding="utf-8"?>
<!-- Generator: Adobe Illustrator 17.1.0, SVG Export Plug-In . SVG Version: 6.00 Build 0)  -->
<!DOCTYPE svg PUBLIC "-//W3C//DTD SVG 1.1//EN" "http://www.w3.org/Graphics/SVG/1.1/DTD/svg11.dtd">
<svg version="1.1" id="Layer_1" xmlns="http://www.w3.org/2000/svg" xmlns:xlink="http://www.w3.org/1999/xlink" x="0px" y="0px"
	 viewBox="0 0 259.5 259.5" enable-background="new 0 0 259.5 259.5" xml:space="preserve">
<path id="Path_143" fill="#F7F7F7" d="M259.5,259.5c-0.2-2.6,0-5.3-0.2-8.2c-0.1-1,0-2.1-0.1-3.1c-0.1-1.3-0.1-2.7-0.2-4.1
	c-0.2-1.7-0.2-3.8-0.4-5.4c-0.3-2.9-0.5-5.9-0.9-8.6c-0.5-3.7-0.8-7.3-1.4-10.5c-0.9-5.5-2-11.3-3.2-16.7c-0.9-3.9-1.8-7.4-2.8-11.2
	c-1.1-4.3-2.4-8.1-3.7-12.4c-1.1-3.6-2.4-6.9-3.6-10.5c-1.3-3.7-2.9-7.3-4.3-10.7c-1.7-4.3-3.7-8.1-5.5-12c-1.1-2.5-2.5-4.9-3.7-7.4
	c-1.3-2.6-2.9-5.2-4.2-7.5c-1.7-3.2-3.5-5.9-5.3-8.9c-1.7-2.8-3.6-5.6-5.4-8.3c-2.3-3.5-4.6-6.6-7-9.8c-2.1-2.8-4-5.3-6.1-7.8
	c-2.4-3-4.9-5.9-7.3-8.6c-3-3.4-6-6.7-9.1-9.8c-2.4-2.4-4.8-4.8-7.1-7c-3-2.8-5.8-5.5-8.7-7.9c-3.3-2.8-6.7-5.7-9.8-8
	c-3-2.2-5.8-4.6-8.7-6.6c-3.2-2.2-6.3-4.4-9.2-6.3c-3.8-2.4-7.5-4.9-11.2-6.9c-4.2-2.3-8.5-4.9-12.5-6.8c-4.6-2.2-9.2-4.6-13.5-6.4
	c-4.1-1.7-8.1-3.5-11.9-4.9c-4.5-1.7-8.5-3.2-12.6-4.5c-6-1.9-12.1-3.7-17.4-5c-9.2-2.3-17.6-3.8-25-4.9c-7.1-1.1-13.4-1.6-18.3-2
	l-2.4-0.2c-1.6-0.1-3.5-0.2-4.6-0.3C8.4,0,4.2-0.1,0,0.1h259.5L259.5,259.5z"/>
</svg>
